<svg viewBox="0 0 1143 968" fill="none" xmlns="http://www.w3.org/2000/svg">
    <g id="geoplan-logo" clip-path="url(#clip0_351_56)">
        <g id="Warstwa_x0020_1">
            <g id="_1676555975104">
                <path id="Vector" fill-rule="evenodd" clip-rule="evenodd"
                    d="M5.19507 899.855L1124.67 900.452L1142.61 878.513L27.8008 877.284L5.19507 899.855Z"
                    fill="#666184" stroke="#7E71B1" stroke-width="0.287996" />
                <path id="Vector_2" fill-rule="evenodd" clip-rule="evenodd"
                    d="M1059.49 886.832L98.4615 861.137C9.37228 664.671 14.9184 481.438 121.629 311.614C287.873 29.2872 697.514 -56.6428 988.792 249.658C1155.42 455.287 1158.19 682.362 1059.49 886.832Z"
                    fill="url(#paint0_linear_351_56)" />
                <path id="Vector_3" fill-rule="evenodd" clip-rule="evenodd"
                    d="M643.808 162.535C635.559 159.727 636.156 147.23 644.686 133.751L654.479 117.323H686.492C686.422 148.143 710.221 168.011 734.301 165.975C757.96 165.448 778.951 143.474 775.09 114.831C796.116 122.448 819.635 126.239 845.294 126.906C856.703 127.643 865.373 122.694 865.197 111.356C864.565 100.474 858.107 94.9633 846.277 94.2963C820.267 96.5429 795.133 99.667 773.124 105.88C753.432 68.2155 707.273 66.1795 690.985 104.897L655.181 100.404C699.305 48.9795 762.488 18.9321 823.882 3.34673C859.23 -3.91941 883.766 0.152438 892.577 20.7574C924.134 73.5159 907.355 187.633 875.166 321.407L686.001 327.901L711.661 184.614C687.967 181.56 665.712 172.785 643.808 162.535Z"
                    fill="url(#paint1_linear_351_56)" />
                <path id="Vector_4" fill-rule="evenodd" clip-rule="evenodd"
                    d="M1043.24 898.416L62.201 899.364C-26.8531 702.897 -21.307 519.664 85.4035 349.84C251.647 67.5134 678.629 -28.8419 969.942 277.459C1136.57 483.088 1141.94 693.946 1043.24 898.416Z"
                    fill="#B0CB1F" />
                <path id="Vector_5" fill-rule="evenodd" clip-rule="evenodd"
                    d="M159.048 912.773L150.799 909.754L171.544 840.287L164.91 838.075L226.619 629.393L214.93 626.023L297.947 337.133H274.499L274.323 288.587L348.213 288.552L348.424 244.533L295.455 244.463L294.963 162.675L362.114 162.851L362.429 178.541L415.363 178.647L415.188 192.652L510.245 193.144L510.525 214.381L415.574 214.591L415.504 231.019L384.789 231.3L384.965 288.341L431.897 288.236L432.388 269.631C434.494 250.782 460.961 248.044 460.821 268.122C475.213 305.155 485.989 303.786 503.084 273.703C511.508 260.505 551.384 265.349 526.707 296.66C518.388 304.207 517.686 314.352 520.986 328.357C525.093 344.013 521.161 355.14 509.227 361.739C509.507 381.432 516.036 398.526 523.899 415.06C529.831 429.522 547.488 427.486 574.832 411.725C597.614 399.123 618.148 384.626 637.139 368.865L661.991 231.405C634.646 224.876 592.032 208.905 593.121 202.27C558.264 196.444 547.137 166.08 554.789 143.088C564.899 112.69 601.475 103.914 627.24 124.905C690.213 62.0726 754.871 26.3737 821.6 24.7941C847.049 24.3378 867.935 38.9052 880.677 80.2555C888.47 121.29 888.505 164.325 882.116 209.045C875.307 259.382 865.373 309.683 851.823 360.019C922.063 383.573 975.874 412.743 1015.54 446.792C1039.37 470.065 1027.16 497.409 994.408 507.132C996.549 514.925 994.057 520.577 986.861 524.087C975.839 528.685 964.361 530.089 952.531 528.826L944.493 587.622C941.439 600.364 932.172 604.014 918.868 603.558L864.39 604.085L868.497 768.678L831.078 768.292C808.753 810.38 802.961 847.061 819.073 876.547C820.231 883.989 828.48 892.87 822.548 898.907L812.018 899.539L812.579 895.959C789.377 900.943 774.809 902.839 760.558 896.696C757.258 887.92 763.928 882.971 776.95 886.341C788.148 891.466 799.662 890.974 811.526 884.761C789.517 854.328 780.706 814.522 780.145 768.959L661.956 769.065C648.758 795.567 640.649 818.278 640.719 835.302C640.895 848.887 643.773 864.016 651.531 882.023C656.726 892.027 657.077 896.099 653.953 899.82L643.457 898.942L643.668 896.45L633.172 898.205C619.974 900.487 606.775 900.136 593.577 898.662C586.908 891.571 592.173 884.2 605.863 885.393C619.026 891.957 632.26 890.764 641.772 884.375C620.886 853.555 612.532 817.47 610.777 768.959L558.931 768.994L599.93 510.994C558.931 510.713 475.774 527.948 473.773 420.184C473.177 401.229 473.212 382.274 473.879 363.319C458.89 360.862 442.919 354.824 433.02 337.203L410.8 337.343L494.413 625.918L483.742 629.183L551.138 855.03L545.698 856.995L557.738 902.523L551.138 903.049L536.045 858.891L529.726 860.4L463.629 635.15L453.309 637.923L378.998 382.379L378.261 634.869L368.467 634.448L368.432 851.906L362.956 853.45L363.553 927.445L353.303 927.761L352.917 853.415L346.458 853.239L346.528 634.658H334.98L334.804 370.339L256.948 637.818L245.645 635.361L186.322 843.692L179.512 842.463L159.048 912.773Z"
                    fill="#393185" />
                <path id="Vector_6" fill-rule="evenodd" clip-rule="evenodd"
                    d="M591.997 189.248C593.226 175.031 602.107 156.568 620.255 133.014C604.073 120.798 588.101 119.465 572.516 137.612C560.054 160.359 567.215 180.648 591.997 189.248Z"
                    fill="#FEFEFE" />
                <path id="Vector_7" fill-rule="evenodd" clip-rule="evenodd"
                    d="M582.941 147.02C586.592 147.02 589.61 151.127 589.61 156.217C589.61 161.271 586.592 165.378 582.941 165.378C579.255 165.378 576.237 161.271 576.237 156.217C576.237 151.127 579.255 147.02 582.941 147.02Z"
                    fill="#393185" />
                <path id="Vector_8"
                    d="M697.585 189.458C715.42 189.458 729.879 174.811 729.879 156.743C729.879 138.675 715.42 124.028 697.585 124.028C679.749 124.028 665.291 138.675 665.291 156.743C665.291 174.811 679.749 189.458 697.585 189.458Z"
                    fill="#FEFEFE" />
                <path id="Vector_9" fill-rule="evenodd" clip-rule="evenodd"
                    d="M691.407 147.09C695.057 147.09 698.076 151.197 698.076 156.287C698.076 161.341 695.057 165.483 691.407 165.483C687.721 165.483 684.737 161.341 684.737 156.287C684.737 151.197 687.721 147.09 691.407 147.09Z"
                    fill="#393185" />
                <path id="Vector_10" fill-rule="evenodd" clip-rule="evenodd"
                    d="M610.075 197.988C601.826 195.215 602.423 182.719 610.988 169.239L620.746 152.812H652.759C652.689 183.631 676.488 203.499 700.603 201.463C724.227 200.937 745.218 178.963 741.357 150.319C762.383 157.936 785.937 161.728 811.561 162.394C822.969 163.132 831.675 158.182 831.464 146.844C830.867 135.963 824.374 130.452 812.544 129.785C786.569 132.031 761.435 135.155 739.391 141.368C719.734 103.704 673.54 101.668 657.252 140.385L631.873 139.367C675.997 87.9428 728.755 54.4203 790.149 38.835C825.497 31.5688 850.068 35.6407 858.844 56.2456C890.401 108.969 873.622 223.121 841.433 356.895L652.268 363.354L677.927 220.102C654.234 217.048 631.979 208.273 610.075 197.988Z"
                    fill="#FEFEFE" />
                <path id="Vector_11" fill-rule="evenodd" clip-rule="evenodd"
                    d="M714.434 299.96C727.737 293.466 736.092 284.69 737.145 272.545C711.766 289.254 689.23 288.481 670.416 268.789C671.609 281.566 677.12 292.939 693.127 300.837C699.796 302.592 706.852 302.417 714.434 299.96Z"
                    fill="#393185" />
                <path id="Vector_12" fill-rule="evenodd" clip-rule="evenodd"
                    d="M671.047 446.195L692.951 374.868L652.829 376.377L671.047 446.195Z"
                    fill="#FEFEFE" />
                <path id="Vector_13" fill-rule="evenodd" clip-rule="evenodd"
                    d="M745.71 480.771L725.631 374.13L840.45 369.286L745.71 480.771Z" fill="#FEFEFE" />
                <path id="Vector_14" fill-rule="evenodd" clip-rule="evenodd"
                    d="M940.105 488.563C949.758 480.174 977.313 480.069 987.212 487.826C982.017 494.706 949.899 495.198 940.105 488.563Z"
                    fill="#FEFEFE" />
                <path id="Vector_15" fill-rule="evenodd" clip-rule="evenodd"
                    d="M937.613 511.696C947.301 503.306 974.821 503.201 984.72 510.923C979.525 517.839 947.406 518.295 937.613 511.696Z"
                    fill="#FEFEFE" />
                <path id="Vector_16" fill-rule="evenodd" clip-rule="evenodd"
                    d="M863.021 435.173L947.371 435.384C951.935 435.384 953.795 435.173 952.953 439.807L948.53 471.644C940.632 473.154 934.278 476.102 930.171 481.192C927.117 485.685 926.696 490.143 930.171 494.426L934.138 499.305C931.224 501.025 929.259 502.639 928.241 503.938C924.309 508.466 924.169 513.451 927.855 518.822C930.242 522.297 936.314 524.964 940.877 526.509L933.12 583.69C931.997 588.605 928.241 590.851 922.273 590.886H839.081C834.132 591.132 832.272 588.745 833.5 583.69L852.771 447.003C853.087 438.403 855.088 434.471 863.021 435.173Z"
                    fill="#FEFEFE" />
                <path id="Vector_17" fill-rule="evenodd" clip-rule="evenodd"
                    d="M685.194 570.246L855.369 373.113C917.921 396.034 971.908 421.905 1009.01 453.496C1024.98 470.1 1019.58 482.596 999.533 492.354C1000.48 476.699 986.335 470.345 961.728 470.135L965.484 439.21C965.66 429.908 960.851 424.642 951.057 423.449L864.179 423.238C848.699 422.677 841.679 431.382 840.485 446.371L822.302 576.88C818.862 593.905 823.285 603.067 837.186 602.751L852.596 603.312L857.018 755.269H685.755L685.194 570.246Z"
                    fill="#FEFEFE" />
                <path id="Vector_18"
                    d="M703.096 595.063C708.252 595.063 712.433 590.741 712.433 585.41C712.433 580.079 708.252 575.757 703.096 575.757C697.939 575.757 693.758 580.079 693.758 585.41C693.758 590.741 697.939 595.063 703.096 595.063Z"
                    fill="#393185" />
                <path id="Vector_19"
                    d="M703.412 650.279C708.568 650.279 712.749 645.957 712.749 640.626C712.749 635.295 708.568 630.973 703.412 630.973C698.255 630.973 694.074 635.295 694.074 640.626C694.074 645.957 698.255 650.279 703.412 650.279Z"
                    fill="#393185" />
                <path id="Vector_20"
                    d="M702.92 703.88C708.077 703.88 712.257 699.558 712.257 694.227C712.257 688.896 708.077 684.574 702.92 684.574C697.763 684.574 693.583 688.896 693.583 694.227C693.583 699.558 697.763 703.88 702.92 703.88Z"
                    fill="#393185" />
                <path id="Vector_21" fill-rule="evenodd" clip-rule="evenodd"
                    d="M672.873 565.086L673.469 756.112H574.868L626.959 427.416L616.429 426.784L604.634 496.883C579.747 499.586 558.545 499.34 540.397 495.689C500.205 487.826 493.852 469.749 488.657 429.171C486.831 411.374 486.867 387.575 487.428 360.406L498.52 360.967C499.398 384.451 505.716 405.196 516.563 423.695C526.602 438.122 541.099 438.894 567.812 428.398C594.209 417.201 618.64 401.475 640.614 380.273L684.035 553.292L672.873 565.086Z"
                    fill="#FEFEFE" />
                <path id="Vector_22" d="M1124.57 899.645H4.73877V967.216H1124.57V899.645Z"
                    fill="#2A156F" />
                <path id="Vector_23" fill-rule="evenodd" clip-rule="evenodd"
                    d="M440.005 275.634C440.005 257.346 459.066 259.066 461.593 317.125C462.716 343.978 495.467 342.012 500.065 332.113C505.014 321.302 489.008 293.712 510.596 277.284C515.58 273.493 528.392 279.074 525.058 284.48C519.582 293.466 515.264 292.694 512.245 304.207C509.894 313.228 515.51 335.343 511.929 340.327C501.294 355.105 465.068 346.681 452.817 337.063C440.883 327.69 440.637 290.447 440.005 275.634Z"
                    fill="#FEFEFE" />
                <path id="Vector_24" fill-rule="evenodd" clip-rule="evenodd"
                    d="M468.543 313.614C466.613 309.859 466.999 306.524 468.719 303.47C473.282 306.734 478.723 308.279 485.322 307.647C485.884 311.579 485.813 314.843 484.725 317.125C478.126 318.178 472.615 317.195 468.543 313.614Z"
                    fill="#B0CB1F" />
                <path id="Vector_25" fill-rule="evenodd" clip-rule="evenodd"
                    d="M1124.6 966.83L1142.15 940.749L1142.54 878.829L1124.64 899.89L1124.6 966.83Z"
                    fill="#2B2A29" stroke="#2B2A29" stroke-width="0.287996" />
                <path id="Vector_26"
                    d="M703.938 649.963C708.979 649.963 713.065 645.767 713.065 640.591C713.065 635.415 708.979 631.219 703.938 631.219C698.898 631.219 694.812 635.415 694.812 640.591C694.812 645.767 698.898 649.963 703.938 649.963Z"
                    fill="#2B2A29" stroke="#2B2A29" stroke-width="0.287996" />
                <path id="Vector_27"
                    d="M703.166 593.87C708.148 593.87 712.187 589.988 712.187 585.2C712.187 580.411 708.148 576.529 703.166 576.529C698.184 576.529 694.145 580.411 694.145 585.2C694.145 589.988 698.184 593.87 703.166 593.87Z"
                    fill="#2B2A29" stroke="#2B2A29" stroke-width="0.287996" />
                <path id="Vector_28"
                    d="M702.639 703.81C707.912 703.81 712.187 699.614 712.187 694.437C712.187 689.261 707.912 685.065 702.639 685.065C697.366 685.065 693.092 689.261 693.092 694.437C693.092 699.614 697.366 703.81 702.639 703.81Z"
                    fill="#2B2A29" stroke="#2B2A29" stroke-width="0.287996" />
                <path id="Vector_29"
                    d="M581.326 165.413C585.01 165.413 587.996 161.437 587.996 156.532C587.996 151.628 585.01 147.652 581.326 147.652C577.643 147.652 574.657 151.628 574.657 156.532C574.657 161.437 577.643 165.413 581.326 165.413Z"
                    fill="#2B2A29" stroke="#2B2A29" stroke-width="0.287996" />
                <path id="Vector_30"
                    d="M690.775 165.413C694.458 165.413 697.444 161.437 697.444 156.532C697.444 151.628 694.458 147.652 690.775 147.652C687.091 147.652 684.105 151.628 684.105 156.532C684.105 161.437 687.091 165.413 690.775 165.413Z"
                    fill="#2B2A29" stroke="#2B2A29" stroke-width="0.287996" />
            </g>
        </g>
    </g>
    <defs>
        <linearGradient id="paint0_linear_351_56" x1="36.2405" y1="471.655" x2="1125.56"
            y2="471.655" gradientUnits="userSpaceOnUse">
            <stop stop-color="#7E71B1" />
            <stop offset="0.8" stop-color="#393185" />
            <stop offset="0.929412" stop-color="#2B2A29" />
            <stop offset="1" stop-color="#2B2A29" />
        </linearGradient>
        <linearGradient id="paint1_linear_351_56" x1="616.042" y1="143.086" x2="943.651"
            y2="180.887" gradientUnits="userSpaceOnUse">
            <stop stop-color="#7E71B1" />
            <stop offset="0.329412" stop-color="#7F71B1" />
            <stop offset="0.788235" stop-color="#2B2A29" />
            <stop offset="1" stop-color="#2B2A29" />
        </linearGradient>
        <clipPath id="clip0_351_56">
            <rect width="1142.93" height="967.298" fill="white" />
        </clipPath>
    </defs>
</svg>